<svg width="49" height="51" viewBox="0 0 49 51" fill="none" xmlns="http://www.w3.org/2000/svg">
<path d="M48.2096 25.5C48.2096 39.1288 37.5943 50.1774 24.5 50.1774C11.4056 50.1774 0.790283 39.1288 0.790283 25.5C0.790283 11.8712 11.4056 0.822586 24.5 0.822586C37.5943 0.822586 48.2096 11.8712 48.2096 25.5Z" fill="#85D3C1"/>
<path d="M35.5646 41.9516V46.8871H21.3388V41.9516H11.8549C10.1083 41.9516 8.6936 40.4792 8.6936 38.6613V35.371H18.9678L21.3388 37.0161H45.4671C44.5665 38.8011 43.452 40.4627 42.1638 41.9516H35.5646Z" fill="#F9D48A"/>
<path d="M41.8871 8.71944C45.8152 13.1284 48.2097 19.0182 48.2097 25.5C48.2097 29.6623 47.2218 33.5776 45.4671 37.0161H21.3388L18.9678 35.371H8.6936V17.2742C8.6936 15.4563 10.1083 13.9839 11.8549 13.9839L16.5968 18.9194V32.0807H41.8871V8.71944Z" fill="#F5F7FA"/>
<path d="M30.0322 23.0323L30.8225 28.7903L25.2903 27.9677L30.0322 23.0323Z" fill="#F5F7FA"/>
<path d="M14.2258 6.58065L9.48384 11.5161L6.51241 8.42342C5.88803 7.77355 5.53223 6.8851 5.53223 5.95568C5.53223 4.99292 5.91157 4.12094 6.51241 3.48794C7.12059 2.86257 7.95838 2.46774 8.88338 2.46774C9.77635 2.46774 10.63 2.83806 11.2543 3.48794L14.2258 6.58065Z" fill="#F9D48A"/>
<path d="M30.0322 23.0323L27.6612 25.5L11.8547 9.04838L14.2257 6.58064L30.0322 23.0323Z" fill="#FF958A"/>
<path d="M27.6613 25.5L25.2903 27.9677L9.48389 11.5161L11.8549 9.04839L27.6613 25.5Z" fill="#FF958A"/>
<path d="M41.8873 7.40323H35.5647V0.822586L41.8873 7.40323Z" fill="#FF958A"/>
<path d="M41.887 8.71944V32.0807H16.5967V18.9194L25.2902 27.9677L30.8225 28.7903L30.0322 23.0323L16.5967 9.04839V2.22917C19.0703 1.31621 21.7338 0.822586 24.4999 0.822586H35.5644V7.40323H41.887V8.71944Z" fill="#F9D48A"/>
<path d="M17.3872 37.8387H18.9678V39.4839H17.3872V37.8387Z" fill="#232323"/>
<path d="M14.2258 37.8387H15.8065V39.4839H14.2258V37.8387Z" fill="#232323"/>
<path d="M11.0647 37.8387H12.6453V39.4839H11.0647V37.8387Z" fill="#232323"/>
<path d="M42.6774 8.41097V7.06263L35.8918 0H24.5C20.1976 0 15.9936 1.18286 12.2909 3.40399L11.8155 2.90875C11.0329 2.0934 9.99287 1.64516 8.88495 1.64516C6.60081 1.64516 4.74194 3.57991 4.74194 5.95809C4.74194 7.07267 5.15369 8.11897 5.8896 8.92428C2.08965 13.5421 0 19.3957 0 25.5C0 39.5602 10.99 51 24.5 51C38.01 51 49 39.5602 49 25.5C49 19.1587 46.7541 13.1055 42.6774 8.41097ZM47.4194 25.5C47.4194 29.3438 46.5356 32.9747 44.9782 36.1935H21.5784L19.2074 34.5484H9.48387V17.2742C9.48387 16.0198 10.3911 14.9924 11.5569 14.8378L15.8065 19.2608V32.9032H42.6774V10.9691C45.7476 15.123 47.4194 20.205 47.4194 25.5ZM40.281 42.7742C39.0855 43.9579 37.7726 45.0134 36.3548 45.9091V42.7742H40.281ZM23.7625 41.129V42.7742H34.7742V46.0645H22.129V41.129H11.8548C10.5478 41.129 9.48387 40.0217 9.48387 38.6613V36.1935H18.7281L21.0991 37.8387H44.108C43.4276 39.0059 42.6489 40.1032 41.7922 41.129H23.7625ZM28.9147 23.0323L27.6613 24.3368L12.9724 9.04839L14.2258 7.74383L28.9147 23.0323ZM29.8906 27.8203L26.9667 27.3853L29.4735 24.7762L29.8906 27.8203ZM11.8548 10.2116L26.5437 25.5L25.2903 26.8046L10.6014 11.5161L11.8548 10.2116ZM36.3548 2.80834L39.9792 6.58065H36.3548V2.80834ZM34.7742 1.64516V8.22581H41.0968V31.2581H17.3871V20.9059L24.9172 28.7433L31.7538 29.7603L30.7767 22.6447L17.3871 8.70779V2.83204C19.6705 2.05725 22.0673 1.64516 24.5 1.64516H34.7742ZM15.8065 3.43572V7.06343L13.4505 4.61135C14.2154 4.17114 15.0011 3.77913 15.8065 3.43572ZM8.88495 3.29032C9.56993 3.29032 10.2132 3.56746 10.6971 4.07193L13.1082 6.58065L9.48387 10.3529L7.07354 7.84424C6.58885 7.33976 6.32258 6.66941 6.32258 5.95809C6.32258 4.48724 7.47179 3.29032 8.88495 3.29032ZM1.58065 25.5C1.58065 19.8355 3.50281 14.4016 7.00369 10.0979L10.2788 13.5067C8.88341 14.1425 7.90323 15.5905 7.90323 17.2742V38.6613C7.90323 40.929 9.67605 42.7742 11.8548 42.7742H20.5484V46.0645H17.3871V47.7097H32.8474C30.2584 48.7676 27.4448 49.3548 24.5 49.3548C11.8626 49.3548 1.58065 38.6541 1.58065 25.5V25.5Z" fill="#232323"/>
<path d="M18.9678 3.29033H20.5484V4.93549H18.9678V3.29033Z" fill="#232323"/>
<path d="M22.1289 3.29033H33.1934V4.93549H22.1289V3.29033Z" fill="#232323"/>
<path d="M18.9678 6.58064H33.1936V8.2258H18.9678V6.58064Z" fill="#232323"/>
<path d="M28.4517 9.87097H39.5162V11.5161H28.4517V9.87097Z" fill="#232323"/>
<path d="M28.4517 13.1613H39.5162V14.8064H28.4517V13.1613Z" fill="#232323"/>
<path d="M28.4517 16.4516H39.5162V18.0968H28.4517V16.4516Z" fill="#232323"/>
<path d="M33.1936 19.7419H39.5162V21.3871H33.1936V19.7419Z" fill="#232323"/>
<path d="M33.1936 23.0323H39.5162V24.6774H33.1936V23.0323Z" fill="#232323"/>
<path d="M33.1936 26.3226H39.5162V27.9677H33.1936V26.3226Z" fill="#232323"/>
</svg>
