<svg width="75" height="70" viewBox="0 0 75 70" fill="none" xmlns="http://www.w3.org/2000/svg">
<path d="M73.7901 35C73.7901 53.7062 57.5422 68.871 37.4998 68.871C17.4574 68.871 1.20947 53.7062 1.20947 35C1.20947 16.2938 17.4574 1.12906 37.4998 1.12906C57.5422 1.12906 73.7901 16.2938 73.7901 35Z" fill="#85D3C1"/>
<path d="M54.4357 57.5806V64.3548H32.6615V57.5806H18.1454C15.472 57.5806 13.3066 55.5596 13.3066 53.0645V48.5484H29.0324L32.6615 50.8064H69.5927C68.2141 53.2564 66.5082 55.537 64.5366 57.5806H54.4357Z" fill="#F9D48A"/>
<path d="M64.1131 11.9678C70.1254 18.0193 73.7905 26.1034 73.7905 35C73.7905 40.713 72.2784 46.0869 69.5927 50.8065H32.6615L29.0324 48.5484H13.3066V23.7097C13.3066 21.2146 15.472 19.1935 18.1453 19.1935L25.4034 25.9677V44.0323H64.1131V11.9678Z" fill="#F5F7FA"/>
<path d="M45.9675 31.6129L47.1772 39.5161L38.7095 38.3871L45.9675 31.6129Z" fill="#F5F7FA"/>
<path d="M21.7742 9.03228L14.5162 15.8065L9.96806 11.5616C9.01236 10.6696 8.46777 9.45015 8.46777 8.17448C8.46777 6.85305 9.04839 5.65621 9.96806 4.78738C10.8989 3.92903 12.1813 3.38712 13.5971 3.38712C14.9639 3.38712 16.2704 3.8954 17.2261 4.78738L21.7742 9.03228Z" fill="#F9D48A"/>
<path d="M45.9676 31.6129L42.3386 35L18.145 12.4194L21.7741 9.03226L45.9676 31.6129Z" fill="#FF958A"/>
<path d="M42.3387 35L38.7097 38.3871L14.5161 15.8065L18.1451 12.4194L42.3387 35Z" fill="#FF958A"/>
<path d="M64.1132 10.1613H54.4358V1.12906L64.1132 10.1613Z" fill="#FF958A"/>
<path d="M64.113 11.9679V44.0323H25.4033V25.9678L38.7098 38.3871L47.1775 39.5162L45.9678 31.6129L25.4033 12.4194V3.05966C29.1895 1.80659 33.2662 1.12906 37.5001 1.12906H54.4356V10.1613H64.113V11.9679Z" fill="#F9D48A"/>
<path d="M26.6128 51.9355H29.0321V54.1936H26.6128V51.9355Z" fill="#232323"/>
<path d="M21.7742 51.9355H24.1935V54.1936H21.7742V51.9355Z" fill="#232323"/>
<path d="M16.9358 51.9355H19.3551V54.1936H16.9358V51.9355Z" fill="#232323"/>
<path d="M65.3226 11.5445V9.6938L54.9364 0H37.5C30.9147 0 24.48 1.62354 18.8126 4.67214L18.0849 3.99241C16.8871 2.8733 15.2952 2.25806 13.5994 2.25806C10.1033 2.25806 7.25806 4.91361 7.25806 8.17777C7.25806 9.70758 7.8883 11.1437 9.0147 12.249C3.19844 18.5871 0 26.6216 0 35C0 54.2983 16.8215 70 37.5 70C58.1785 70 75 54.2983 75 35C75 26.2963 71.5623 17.9879 65.3226 11.5445ZM72.5806 35C72.5806 40.2758 71.228 45.2594 68.8441 49.6774H33.0281L29.3991 47.4194H14.5161V23.7097C14.5161 21.988 15.9048 20.5778 17.6892 20.3656L24.1935 26.4363V45.1613H65.3226V15.0556C70.0219 20.757 72.5806 27.7324 72.5806 35ZM61.6546 58.7097C59.8247 60.3343 57.8153 61.7831 55.6452 63.0125V58.7097H61.6546ZM36.3712 56.4516V58.7097H53.2258V63.2258H33.871V56.4516H18.1452C16.1446 56.4516 14.5161 54.9317 14.5161 53.0645V49.6774H28.6655L32.2945 51.9355H67.5122C66.4708 53.5375 65.2789 55.0436 63.9676 56.4516H36.3712ZM44.2572 31.6129L42.3387 33.4035L19.8557 12.4194L21.7742 10.6288L44.2572 31.6129ZM45.751 38.1848L41.2755 37.5877L45.1125 34.0066L45.751 38.1848ZM18.1452 14.0159L40.6282 35L38.7097 36.7906L16.2267 15.8065L18.1452 14.0159ZM55.6452 3.85459L61.1927 9.03226H55.6452V3.85459ZM53.2258 2.25806V11.2903H62.9032V42.9032H26.6129V28.6944L38.1385 39.4516L48.6027 40.8475L47.1071 31.0809L26.6129 11.9519V3.88711C30.1079 2.82368 33.7765 2.25806 37.5 2.25806H53.2258ZM24.1935 4.71569V9.6949L20.5876 6.32931C21.7582 5.7251 22.9608 5.18704 24.1935 4.71569ZM13.5994 4.51613C14.6478 4.51613 15.6325 4.89652 16.3732 5.58893L20.0636 9.03226L14.5161 14.2099L10.8268 10.7666C10.085 10.0742 9.67742 9.15409 9.67742 8.17777C9.67742 6.15896 11.4364 4.51613 13.5994 4.51613ZM2.41935 35C2.41935 27.2252 5.36145 19.7669 10.7199 13.8599L15.7329 18.5386C13.5971 19.4113 12.0968 21.3987 12.0968 23.7097V53.0645C12.0968 56.1771 14.8103 58.7097 18.1452 58.7097H31.4516V63.2258H26.6129V65.4839H50.2766C46.3139 66.936 42.0073 67.7419 37.5 67.7419C18.157 67.7419 2.41935 53.0546 2.41935 35V35Z" fill="#232323"/>
<path d="M29.0322 4.51613H31.4516V6.77419H29.0322V4.51613Z" fill="#232323"/>
<path d="M33.8708 4.51613H50.8063V6.77419H33.8708V4.51613Z" fill="#232323"/>
<path d="M29.0322 9.03226H50.8064V11.2903H29.0322V9.03226Z" fill="#232323"/>
<path d="M43.5483 13.5484H60.4838V15.8064H43.5483V13.5484Z" fill="#232323"/>
<path d="M43.5483 18.0645H60.4838V20.3226H43.5483V18.0645Z" fill="#232323"/>
<path d="M43.5483 22.5806H60.4838V24.8387H43.5483V22.5806Z" fill="#232323"/>
<path d="M50.8066 27.0968H60.4841V29.3548H50.8066V27.0968Z" fill="#232323"/>
<path d="M50.8066 31.6129H60.4841V33.871H50.8066V31.6129Z" fill="#232323"/>
<path d="M50.8066 36.129H60.4841V38.3871H50.8066V36.129Z" fill="#232323"/>
</svg>
